<?xml version="1.0" encoding="UTF-8"?>
<svg xmlns="http://www.w3.org/2000/svg" xmlns:xlink="http://www.w3.org/1999/xlink" viewBox="0 0 2028.79 1049.71">
  <defs>
    <style>
      .cls-1 {
        fill: url(#_Áåçûìÿííûé_ãðàäèåíò_20-2);
      }

      .cls-1, .cls-2, .cls-3 {
        mix-blend-mode: screen;
      }

      .cls-4 {
        isolation: isolate;
      }

      .cls-2 {
        fill: url(#_Áåçûìÿííûé_ãðàäèåíò_20-3);
      }

      .cls-3 {
        fill: url(#_Áåçûìÿííûé_ãðàäèåíò_20);
      }

      .cls-5 {
        clip-path: url(#clippath);
      }

      .cls-6 {
        fill: none;
      }
    </style>
    <clipPath id="clippath">
      <rect class="cls-6" x="69.25" width="1920" height="960"/>
    </clipPath>
    <linearGradient id="_Áåçûìÿííûé_ãðàäèåíò_20" data-name="Áåçûìÿííûé ãðàäèåíò 20" x1="1258.24" y1="488.78" x2="844.53" y2="650.58" gradientUnits="userSpaceOnUse">
      <stop offset="0" stop-color="#537a73"/>
      <stop offset=".14" stop-color="#4d726b"/>
      <stop offset=".37" stop-color="#3e5c57"/>
      <stop offset=".64" stop-color="#263835"/>
      <stop offset=".95" stop-color="#050807"/>
      <stop offset="1" stop-color="#000"/>
    </linearGradient>
    <linearGradient id="_Áåçûìÿííûé_ãðàäèåíò_20-2" data-name="Áåçûìÿííûé ãðàäèåíò 20" x1="1498.35" y1="290.4" x2="1400.31" y2="640.74" xlink:href="#_Áåçûìÿííûé_ãðàäèåíò_20"/>
    <linearGradient id="_Áåçûìÿííûé_ãðàäèåíò_20-3" data-name="Áåçûìÿííûé ãðàäèåíò 20" x1="1308.16" y1="149.7" x2="1724.85" y2="319.31" xlink:href="#_Áåçûìÿííûé_ãðàäèåíò_20"/>
  </defs>
  <g class="cls-4">
    <g id="Layer_1" data-name="Layer 1">
      <g class="cls-5">
        <path class="cls-3" d="m1076.38,553.99c23.63-18.67,54.28-25.26,84.36-29.76,47.83-7.15,96.66-9.05,143.3-21.85,17.34-4.76,34.75-11.81,46.65-25.29-11.24,10.38-26.62,14.96-41.67,17.73-59.6,10.94-121.64-1.67-181.26,9.2-18.03,3.29-35.66,8.7-53.81,11.26,35.53-24.44,73.71-32.53,116.03-35.76,24.93-1.9,50.04-2.12,74.77-5.83,24.73-3.71,49.46-11.17,69.55-26.06-20.22,14.04-48.29,15.2-72.85,16.83-47.24,3.14-94.74,2.99-141.73,8.75-26.55,3.26-53.42,8.6-76.65,21.87-2.03,1.16-4.22,2.66-4.59,4.97s2.77,4.69,4.31,2.94c-2.57,8.24-13.95,13.9-22.41,15.57-15.01,2.96-29.58,8.12-43.11,15.26-9.6,5.07-19.43,12.16-21.86,22.74-.9,3.92-.62,8.23,1.42,11.69,2.05,3.46,6.05,5.87,10.05,5.4-11.8,12.48-11.66,29.84-8.18,46.66,6.55,31.63,41.49,52.01,71.62,36.73.57-.29,1.18-.65,1.36-1.26.22-.74-.3-1.48-.81-2.07-5.56-6.47-13.09-11.26-17.57-18.51-4.48-7.26-4.21-18.74,3.52-22.36,2.14,5.11,5.64,11.12,11.17,10.77,3.44-.21,6.23-3.07,7.58-6.25,3.64-8.6,3.18-15.39,8.69-23.18,5.99-8.47,10.74-17.59,17.35-25.67,4.51-5.52,9.46-10.31,14.76-14.5Z"/>
        <path class="cls-1" d="m1517.62,291.71c9,13.5,12.06,35.02,13.86,50.76,1.94,16.88,3.9,33.66,5.82,50.61.15,1.44.31,2.94-.15,4.32-.5,1.56-1.71,2.75-2.8,3.94-3.8,4.07-6.93,8.81-8.6,14.11-1.56,4.9-1.82,10.1-2.59,15.19-.79,5.13-2.07,10.16-3.38,15.17-1.06,4.05-2.19,8.28-4.97,11.4-4.78,5.36-9.39,1.36-14.88,3.21-1.69.56-2.86,2.09-3.9,3.57-15.99,22.89-24.92,50.71-44.26,70.87-36.4,37.98-98.71,38.32-138.99,72.19-1.04.86-2.17,2-2.04,3.36.1.94.81,1.71,1.52,2.32,6.85,5.84,17.18,3.92,25.8,1.38,26.52-7.8,52.2-18.34,76.57-31.39-3.55,4.07-7.26,9.96-4.17,14.4,3.17,4.55,10.2,2.88,15.26.63,45.87-20.31,89.36-49.61,110.21-97.11,11.44-26.05,16.09-54.7,16.8-83.16,1.11-44.37-7.95-90.66-35.12-125.78Zm-.29,198.99c-6.55,15.36-18.18,28.51-32.62,36.9-.73.42-1.65.84-2.4.44-.65-.36-.86-1.19-.92-1.94-.38-3.99,1.32-7.87,3.11-11.46,7.12-14.25,16.84-30.99,28.57-41.91.73-.67,1.56-1.32,2.52-1.46,2.23-.29,3.8,2.17,4.26,4.34,1.09,5.07-.48,10.33-2.52,15.09Z"/>
        <path class="cls-2" d="m1535.92,256.03c4.11,15.23,21.8,49.96,42.2,39.68,8.24-4.15,13.12-12.82,16.85-21.26,6.84,5.71,9.4,14.97,11.17,23.71,4.39,21.65,6.21,43.82,5.4,65.9,12.1-11.53,17.99-28.26,20.24-44.81,4.81-35.49-6.02-72.83-29.08-100.23,7.75,5.04,19.92-2.44,18.93-11.63-.58-5.4-4.59-9.74-8.57-13.44-32.24-29.99-77.33-45.67-121.23-42.17,4.86,3.68,8.48,8.99,10.12,14.86-21.78,3.34-43.73-3.21-65.71-4.8-30.82-2.24-62.3,5.62-88.46,22.07,32.37-4.93,65.53-4.54,97.79,1,26.71,4.59,59.3,10.08,76.67,33.1,8.18,10.84,10.15,24.93,13.69,38.04Z"/>
      </g>
    </g>
  </g>
</svg>