<?xml version="1.0" encoding="UTF-8"?>
<svg id="Layer_1" data-name="Layer 1" xmlns="http://www.w3.org/2000/svg" xmlns:xlink="http://www.w3.org/1999/xlink" viewBox="0 0 2028.79 1049.71">
  <defs>
    <style>
      .cls-1 {
        clip-path: url(#clippath);
      }

      .cls-2 {
        fill: none;
      }

      .cls-3 {
        fill: #5f4e59;
      }
    </style>
    <clipPath id="clippath">
      <rect class="cls-2" x="69.25" width="1920" height="960"/>
    </clipPath>
  </defs>
  <g class="cls-1">
    <g>
      <path class="cls-3" d="m878.52,350.36s-.79.28-1.8.97c-.51.34-1.06.8-1.58,1.36-.13.14-.26.29-.39.44l-.19.24-.32.44c-.46.66-1.07,1.92-1.56,2.81-.03.06-.06.11-.08.15-.23-1-.47-2.25-.71-3.13l-.2-.6-.11-.28c-.08-.18-.15-.36-.23-.54-.32-.7-.69-1.3-1.05-1.79-.72-.98-1.34-1.51-1.34-1.51,0,0,.19.05.54.17.34.13.83.35,1.38.74.55.38,1.16.93,1.69,1.67.13.18.26.38.38.59l.17.31.04.04s.04-.02.04-.02h0s-.03.06.05,0c.04-.04.01,0,.11-.1l.27-.26c.18-.16.36-.32.55-.45.75-.55,1.52-.88,2.17-1.06.66-.18,1.2-.22,1.58-.22.37,0,.57.03.57.03Z"/>
      <path class="cls-3" d="m868.11,378.75s-.34.46-.79,1.26c-.22.4-.46.89-.67,1.46-.11.28-.21.59-.3.91-.05.16-.27,1.02-.44,1.77-.32-.06-.74-.15-1.21-.24-.16-.03-.33-.06-.5-.09-.13-.02-.26-.04-.39-.05-3.43-.53-6.53-.05-6.53-.05,0,0,.61-.51,1.8-1,1.17-.49,2.98-.91,4.96-.63.15.02.3.05.44.07.14.03.32.07.27.06,0,0,.02.03.04.05-.07.3.43-.9.81-1.35.4-.57.83-1,1.21-1.32.76-.63,1.29-.84,1.29-.84Z"/>
      <path class="cls-3" d="m897.92,393.22s-.45.29-1.07.81c-.31.26-.66.58-1.01.95-.18.19-.36.38-.53.6-.25.28-.75.93-1.14,1.44-.16-.16-.42-.44-.69-.73-.21-.22-.43-.44-.63-.66l-.33-.34c-.22-.22-.44-.43-.64-.64-.43-.4-.82-.77-1.15-1.08-.71-.61-1.16-1.01-1.16-1.01,0,0,.61,0,1.56.26.47.14,1.02.35,1.6.67.28.16.58.34.86.56.14.11.28.22.42.34l.1.09h0s0,0,0,0v.02s-.05.1.13-.04c.26-.22.54-.4.8-.55.53-.3,1.05-.48,1.48-.58.87-.2,1.4-.12,1.4-.12Z"/>
      <path class="cls-3" d="m598.28,383.7s-.32.8-.6,2.08c-.14.64-.25,1.4-.3,2.24-.02.42-.03.86-.02,1.31.01.25.03.5.04.75.01.24.05.5.07.76l.04.38.02.19v.1s-.09,0-.09,0c-.5.03-1.07.03-1.49.07-.23.02-.46.04-.68.06-.45.05-.88.12-1.29.2-.82.16-1.57.38-2.18.6-1.24.44-1.99.86-1.99.86,0,0,.49-.71,1.62-1.55.56-.42,1.3-.85,2.18-1.18.44-.16.92-.31,1.42-.41.25-.05.51-.09.78-.13.08-.01.02-.01.04-.01,0,0,0,0,0,0,0-.14,0-.49.01-.72.03-.52.11-1.01.21-1.47.21-.92.54-1.71.88-2.32.68-1.24,1.33-1.81,1.33-1.81Z"/>
      <path class="cls-3" d="m630.67,334.13s-.39.66-.79,1.69c-.4,1.04-.76,2.47-.83,4.02.01.75.02,1.49.03,1.93-.4-.01-.78-.03-1.17-.04-.19,0-.37,0-.54,0h-.28c-.32,0-.62.03-.91.07-.58.07-1.11.19-1.54.32-.88.26-1.41.53-1.41.53,0,0,.26-.54,1.01-1.22.38-.34.89-.7,1.54-.99.33-.14.69-.27,1.08-.36l.26-.06s.02-.02.02-.03c0-.02,0-.03,0-.04-.02-.08-.05.09-.03-.22.09-1.99,1.08-3.58,1.95-4.45.88-.88,1.59-1.17,1.59-1.17Z"/>
      <path class="cls-3" d="m578.72,402.61s-.11.31-.18.78c-.04.24-.07.52-.07.82,0,.15,0,.31.02.47,0,.34.07.77.11,1.2-.17.04-.42.07-.72.12-.15.02-.31.04-.47.07l-.25.05c-.86.19-1.67.4-2.3.61-.62.21-1.04.39-1.04.39,0,0,.12-.45.58-1.03.45-.57,1.29-1.26,2.42-1.51l.24-.04h0s.03.03.05.05c.02,0,.05,0,.08-.04.05-.22.13-.42.22-.6.17-.36.39-.64.58-.83.4-.4.7-.5.7-.5Z"/>
      <path class="cls-3" d="m612.24,400.77s-.68.26-1.51.93c-.42.33-.86.77-1.25,1.31-.19.27-.39.56-.55.88-.05.08-.08.16-.12.24-.1.17-.17.38-.25.59-.15.42-.31.84-.47,1.27-.08-.07-.21-.19-.35-.31-.35-.31-.7-.61-1.04-.9-.26-.18-.33-.23-.51-.33-.31-.18-.63-.33-.95-.45-.64-.24-1.27-.35-1.82-.38-.55-.03-1.01.01-1.33.07-.32.06-.5.1-.5.1,0,0,.13-.13.41-.33.28-.2.72-.44,1.33-.62.6-.17,1.38-.27,2.23-.13.43.06.87.19,1.3.39.19.08.49.25.59.31h0s0,0,0,0h.01s0,.02.02,0c.06-.1.12-.2.19-.29.25-.38.56-.7.86-.98.62-.55,1.27-.9,1.84-1.09.57-.2,1.04-.26,1.37-.27.32-.01.5,0,.5,0Z"/>
      <path class="cls-3" d="m587.57,443.82s-.16.78-.42,2.01c-.14.6-.3,1.32-.48,2.11-.24.99-.51,2.07-.79,3.2-.07.28-.14.55-.18.7-.44-.18-.87-.36-1.29-.53-.19-.08-.47-.18-.58-.21l-.27-.09c-.36-.12-.72-.21-1.07-.28-.69-.14-1.35-.2-1.91-.21-1.13-.02-1.87.13-1.87.13,0,0,.52-.55,1.7-1.02.58-.23,1.33-.42,2.19-.45.43-.01.89,0,1.36.09l.36.07c.1.02.03,0,.06,0,0,0,0-.02,0-.02h0s0,.02.02-.03c.08-.23.15-.45.23-.66.16-.43.33-.84.52-1.22.37-.76.76-1.42,1.13-1.95.73-1.06,1.3-1.62,1.3-1.62Z"/>
      <path class="cls-3" d="m894.12,463.78s-.96.36-2.53.79c-.78.21-1.72.45-2.77.66-.52.1-1.07.2-1.64.31-.65.1-.88.15-2.36.32-.19.09-.2-.15-.29-.26l-.21-.41-.32-.63c-.13-.25-.26-.49-.39-.73-.27-.48-.54-.93-.81-1.36-.55-.86-1.09-1.61-1.58-2.23-.98-1.24-1.71-1.97-1.71-1.97,0,0,.98.32,2.36,1.27.69.47,1.46,1.12,2.22,1.94.37.42.74.87,1.09,1.38.17.25.34.51.5.79l.1.17h0s0,0,0,0c-.27.03.7-.07,1.19-.1.58-.03,1.14-.06,1.67-.09,1.07-.04,2.03-.03,2.84,0,1.63.05,2.64.17,2.64.17Z"/>
    </g>
  </g>
</svg>