<?xml version="1.0" encoding="UTF-8"?>
<svg id="Layer_1" data-name="Layer 1" xmlns="http://www.w3.org/2000/svg" xmlns:xlink="http://www.w3.org/1999/xlink" viewBox="0 0 2028.79 1100.45">
  <defs>
    <style>
      .cls-1 {
        fill: url(#_Áåçûìÿííûé_ãðàäèåíò_1791-7);
      }

      .cls-2 {
        fill: url(#_Áåçûìÿííûé_ãðàäèåíò_1791-24);
      }

      .cls-3 {
        fill: url(#_Áåçûìÿííûé_ãðàäèåíò_1791-4);
      }

      .cls-4 {
        fill: url(#_Áåçûìÿííûé_ãðàäèåíò_1791-6);
      }

      .cls-5 {
        fill: url(#_Áåçûìÿííûé_ãðàäèåíò_1791-22);
      }

      .cls-6 {
        fill: url(#_Áåçûìÿííûé_ãðàäèåíò_1791-16);
      }

      .cls-7 {
        fill: url(#_Áåçûìÿííûé_ãðàäèåíò_1791);
      }

      .cls-8 {
        fill: url(#_Áåçûìÿííûé_ãðàäèåíò_1791-11);
      }

      .cls-9 {
        fill: url(#_Áåçûìÿííûé_ãðàäèåíò_1791-12);
      }

      .cls-10 {
        fill: url(#_Áåçûìÿííûé_ãðàäèåíò_1791-18);
      }

      .cls-11 {
        fill: url(#_Áåçûìÿííûé_ãðàäèåíò_1791-5);
      }

      .cls-12 {
        fill: url(#_Áåçûìÿííûé_ãðàäèåíò_1791-2);
      }

      .cls-13 {
        fill: url(#_Áåçûìÿííûé_ãðàäèåíò_1791-20);
      }

      .cls-14 {
        fill: url(#_Áåçûìÿííûé_ãðàäèåíò_1791-14);
      }

      .cls-15 {
        fill: url(#_Áåçûìÿííûé_ãðàäèåíò_1791-10);
      }

      .cls-16 {
        fill: url(#_Áåçûìÿííûé_ãðàäèåíò_1791-8);
      }

      .cls-17 {
        fill: url(#_Áåçûìÿííûé_ãðàäèåíò_1791-19);
      }

      .cls-18 {
        fill: url(#_Áåçûìÿííûé_ãðàäèåíò_1791-3);
      }

      .cls-19 {
        fill: url(#_Áåçûìÿííûé_ãðàäèåíò_1791-13);
      }

      .cls-20 {
        fill: url(#_Áåçûìÿííûé_ãðàäèåíò_1791-23);
      }

      .cls-21 {
        fill: url(#_Áåçûìÿííûé_ãðàäèåíò_1791-15);
      }

      .cls-22 {
        fill: url(#_Áåçûìÿííûé_ãðàäèåíò_1791-21);
      }

      .cls-23 {
        fill: url(#_Áåçûìÿííûé_ãðàäèåíò_1791-9);
      }

      .cls-24 {
        fill: url(#_Áåçûìÿííûé_ãðàäèåíò_1791-17);
      }

      .cls-25 {
        fill: url(#_Áåçûìÿííûé_ãðàäèåíò_1791-25);
      }

      .cls-26 {
        fill: url(#_Áåçûìÿííûé_ãðàäèåíò_1791-26);
      }
    </style>
    <linearGradient id="_Áåçûìÿííûé_ãðàäèåíò_1791" data-name="Áåçûìÿííûé ãðàäèåíò 1791" x1="1302.43" y1="-16.38" x2="1697.62" y2="301.49" gradientUnits="userSpaceOnUse">
      <stop offset="0" stop-color="#a8fbf5"/>
      <stop offset=".5" stop-color="#7dd9cc"/>
      <stop offset="1" stop-color="#33a19f"/>
    </linearGradient>
    <linearGradient id="_Áåçûìÿííûé_ãðàäèåíò_1791-2" data-name="Áåçûìÿííûé ãðàäèåíò 1791" x1="610.2" y1="178.31" x2="285.11" y2="483.94" xlink:href="#_Áåçûìÿííûé_ãðàäèåíò_1791"/>
    <linearGradient id="_Áåçûìÿííûé_ãðàäèåíò_1791-3" data-name="Áåçûìÿííûé ãðàäèåíò 1791" x1="1077.06" y1="318.75" x2="1569.24" y2="724.65" xlink:href="#_Áåçûìÿííûé_ãðàäèåíò_1791"/>
    <linearGradient id="_Áåçûìÿííûé_ãðàäèåíò_1791-4" data-name="Áåçûìÿííûé ãðàäèåíò 1791" x1="565.45" y1="374.05" x2="389.95" y2="569.16" xlink:href="#_Áåçûìÿííûé_ãðàäèåíò_1791"/>
    <linearGradient id="_Áåçûìÿííûé_ãðàäèåíò_1791-5" data-name="Áåçûìÿííûé ãðàäèåíò 1791" x1="1264.04" y1="353.48" x2="1338.55" y2="603.49" xlink:href="#_Áåçûìÿííûé_ãðàäèåíò_1791"/>
    <linearGradient id="_Áåçûìÿííûé_ãðàäèåíò_1791-6" data-name="Áåçûìÿííûé ãðàäèåíò 1791" x1="1364.62" y1="281.43" x2="1474.42" y2="546.15" xlink:href="#_Áåçûìÿííûé_ãðàäèåíò_1791"/>
    <linearGradient id="_Áåçûìÿííûé_ãðàäèåíò_1791-7" data-name="Áåçûìÿííûé ãðàäèåíò 1791" x1="1462.85" y1="240.69" x2="1572.65" y2="505.4" xlink:href="#_Áåçûìÿííûé_ãðàäèåíò_1791"/>
    <linearGradient id="_Áåçûìÿííûé_ãðàäèåíò_1791-8" data-name="Áåçûìÿííûé ãðàäèåíò 1791" x1="1384.88" y1="279.22" x2="1291.39" y2="521.1" xlink:href="#_Áåçûìÿííûé_ãðàäèåíò_1791"/>
    <linearGradient id="_Áåçûìÿííûé_ãðàäèåíò_1791-9" data-name="Áåçûìÿííûé ãðàäèåíò 1791" x1="1348.28" y1="385.02" x2="1319.48" y2="585.8" xlink:href="#_Áåçûìÿííûé_ãðàäèåíò_1791"/>
    <linearGradient id="_Áåçûìÿííûé_ãðàäèåíò_1791-10" data-name="Áåçûìÿííûé ãðàäèåíò 1791" x1="1060.21" y1="531.03" x2="1088.32" y2="827.77" xlink:href="#_Áåçûìÿííûé_ãðàäèåíò_1791"/>
    <linearGradient id="_Áåçûìÿííûé_ãðàäèåíò_1791-11" data-name="Áåçûìÿííûé ãðàäèåíò 1791" x1="1484.24" y1="-23.74" x2="1325.41" y2="569.42" xlink:href="#_Áåçûìÿííûé_ãðàäèåíò_1791"/>
    <linearGradient id="_Áåçûìÿííûé_ãðàäèåíò_1791-12" data-name="Áåçûìÿííûé ãðàäèåíò 1791" x1="1560.74" y1="-26.4" x2="1401.92" y2="566.76" xlink:href="#_Áåçûìÿííûé_ãðàäèåíò_1791"/>
    <linearGradient id="_Áåçûìÿííûé_ãðàäèåíò_1791-13" data-name="Áåçûìÿííûé ãðàäèåíò 1791" x1="1613.1" y1="-48.86" x2="1454.28" y2="544.3" xlink:href="#_Áåçûìÿííûé_ãðàäèåíò_1791"/>
    <linearGradient id="_Áåçûìÿííûé_ãðàäèåíò_1791-14" data-name="Áåçûìÿííûé ãðàäèåíò 1791" x1="1547.74" y1="-29.88" x2="1388.91" y2="563.28" xlink:href="#_Áåçûìÿííûé_ãðàäèåíò_1791"/>
    <linearGradient id="_Áåçûìÿííûé_ãðàäèåíò_1791-15" data-name="Áåçûìÿííûé ãðàäèåíò 1791" x1="1563.7" y1="32.26" x2="1653.9" y2="269.52" xlink:href="#_Áåçûìÿííûé_ãðàäèåíò_1791"/>
    <linearGradient id="_Áåçûìÿííûé_ãðàäèåíò_1791-16" data-name="Áåçûìÿííûé ãðàäèåíò 1791" x1="1640.23" y1="3.16" x2="1730.43" y2="240.42" xlink:href="#_Áåçûìÿííûé_ãðàäèåíò_1791"/>
    <linearGradient id="_Áåçûìÿííûé_ãðàäèåíò_1791-17" data-name="Áåçûìÿííûé ãðàäèåíò 1791" x1="505.17" y1="90.58" x2="197.81" y2="486.18" xlink:href="#_Áåçûìÿííûé_ãðàäèåíò_1791"/>
    <linearGradient id="_Áåçûìÿííûé_ãðàäèåíò_1791-18" data-name="Áåçûìÿííûé ãðàäèåíò 1791" x1="587.82" y1="188.77" x2="280.45" y2="584.37" xlink:href="#_Áåçûìÿííûé_ãðàäèåíò_1791"/>
    <linearGradient id="_Áåçûìÿííûé_ãðàäèåíò_1791-19" data-name="Áåçûìÿííûé ãðàäèåíò 1791" x1="606.61" y1="232.12" x2="299.25" y2="627.73" xlink:href="#_Áåçûìÿííûé_ãðàäèåíò_1791"/>
    <linearGradient id="_Áåçûìÿííûé_ãðàäèåíò_1791-20" data-name="Áåçûìÿííûé ãðàäèåíò 1791" x1="672.87" y1="311.12" x2="325.8" y2="647.41" xlink:href="#_Áåçûìÿííûé_ãðàäèåíò_1791"/>
    <linearGradient id="_Áåçûìÿííûé_ãðàäèåíò_1791-21" data-name="Áåçûìÿííûé ãðàäèåíò 1791" x1="713.98" y1="339.61" x2="366.91" y2="675.89" xlink:href="#_Áåçûìÿííûé_ãðàäèåíò_1791"/>
    <linearGradient id="_Áåçûìÿííûé_ãðàäèåíò_1791-22" data-name="Áåçûìÿííûé ãðàäèåíò 1791" x1="403.76" y1="11.79" x2="96.39" y2="407.39" xlink:href="#_Áåçûìÿííûé_ãðàäèåíò_1791"/>
    <linearGradient id="_Áåçûìÿííûé_ãðàäèåíò_1791-23" data-name="Áåçûìÿííûé ãðàäèåíò 1791" x1="273.49" y1="-61.31" x2="83.29" y2="288.71" xlink:href="#_Áåçûìÿííûé_ãðàäèåíò_1791"/>
    <linearGradient id="_Áåçûìÿííûé_ãðàäèåíò_1791-24" data-name="Áåçûìÿííûé ãðàäèåíò 1791" x1="608.03" y1="453.29" x2="419.79" y2="621.93" xlink:href="#_Áåçûìÿííûé_ãðàäèåíò_1791"/>
    <linearGradient id="_Áåçûìÿííûé_ãðàäèåíò_1791-25" data-name="Áåçûìÿííûé ãðàäèåíò 1791" x1="577.35" y1="419.04" x2="389.1" y2="587.67" xlink:href="#_Áåçûìÿííûé_ãðàäèåíò_1791"/>
    <linearGradient id="_Áåçûìÿííûé_ãðàäèåíò_1791-26" data-name="Áåçûìÿííûé ãðàäèåíò 1791" x1="653.81" y1="504.39" x2="465.56" y2="673.02" xlink:href="#_Áåçûìÿííûé_ãðàäèåíò_1791"/>
  </defs>
  <path class="cls-7" d="m1817.16,176.05c.98,22.62-27.96,49.48-43.3,61.73-44.68,35.71-89.43,69.54-139.45,97.65-45.43,25.54-91.64,44.08-141.12,60.08-35.19,11.37-69.5,19.78-106.25,9.25-26.75-7.66-44.54-23.96-51.03-51.67-2.19-9.33-6.09-26.59,3.71-32.16-22-26.59-6.87-52.59,21-64.86,13.88-6.12,20.72-5.99,33.85-2.5-7.26-9.66-11.42-20.22-12.9-31.1v-.02c-2.09-15.03.96-30.66,8.04-45.33,9.75-20.18,27.96-48.77,53.4-47.08,12.98.86,29.63,7.93,33.54,21.43.06-.65.13-1.31.27-1.94v-.02c1.21-6.95,5.7-13.67,11.75-19.03,8.79-7.8,20.91-12.73,31.07-11.39,20.29,2.69,25.73,15.3,24,30.32-2.17,19.03-15.84,41.93-25.27,53.49,41.22-23.98,52.86-1.06,59.64,38.55-4.03-29.99-6.6-53.7,7.99-82.08,2.9-5.64,5.95-10.27,9.08-13.88,14.59-16.8,30.72-11.46,40.2,15.71.25.71.5,1.42.73,2.15-5.49-21.39-11.39-56.41,2.65-73.08-.02-.02,0-.02,0-.02,4.82-5.76,12.02-9.33,22.44-9.39,29.51-.17,52.86,20.56,65.89,46.08l.02.02c1.08,2.11,2.09,4.26,3.03,6.43-7.43-35.39,34-53.89,62.3-63.67,20.95-7.24,52.57-16.7,69.77,2.98,26.53,30.37-27.88,84.61-45.06,103.33Z"/>
  <path class="cls-12" d="m833.87,610.13c-4.44,6.14-26.44,17.63-31.01,23.04-28.24,33.5-74.28,46.16-116.43,56.81-32.97,8.33-64.74,6.03-97.31-2.71-63-16.93-123.46-35.54-182.25-64.26-61.44-30.03-125.22-57.41-182.38-95.16-23.04-15.21-62.07-39.78-84.29-58.6-68.83-58.31-99.84-151.99-108.63-240.56-6.6-66.68-14.69-161.61,57.37-196.36,47.79-23.06,95.19-16.82,140.1,7.26,20.49,10.98,61.17,43.03,40.49,67.37,3.36-3.97,6.85-6.22,10.33-7.14h.02c17.28-4.51,34.37,23.9,36.81,37.11,2,10.83,1.73,24.27-1.08,36.86,1.25-2.5,2.55-4.99,3.88-7.49l.02-.02c9.41-17.7,20.89-35.29,34.79-49.57,12.19-12.52,26.25-22.54,42.41-27.92,42.3-14.07,74.9,4.7,93.75,42.84,23.64,47.75,11.92,108.4-7.81,155.92-.96,2.3-1.92,4.57-2.92,6.8,6.47-9.72,15.61-14.53,23.75-15.63,14.23-1.98,25.38,7.39,13.8,21.66t-.02.04c-2.88,3.53-7.14,7.39-13.13,11.44,3.61-1.67,8.37-3.21,13.67-4.34h.02c15.69-3.3,35.98-2.98,44.56,8.01,14.61,18.68-11.29,46.35-27.71,59-1.61,1.25-3.11,2.34-4.49,3.26,10.77-3.19,32.47,6.12,29.28,21.02,5.66-5.63,8.33-15.57,13.21-22.87-.02-.02,0-.04,0-.04v-.04c2.04-3.11,4.49-5.72,7.74-7.3,11.35-5.53,22.46,5.09,29.24,15.63t0,.04s.02.02,0,.04c.67,1.04,1.31,2,1.88,3.01,1.63-3.63,3.99-7.01,6.78-9.75,8.52-8.45,21.04-11.25,28.76,1.08,12.44,19.8,3.8,58.89-9.93,89.3-7.58,16.84-16.74,31.01-24.73,37.79,14.21,5.68,50.78-26.27,44.45,16.55,6.28-11.92,19.87-22.91,33.96-26.92,21.06-5.99,45.41,17.66,59.21,31.83-.31-17.43,7.87-40.67,24.38-57.47,29.91-30.47,29.97,28.97,35.92,49.56,6.24-4.86,19.26-8.04,28.9-2.07,8.74,5.4,6.84,17.11.38,23.12,30.36-.36,1.52,59.71-5.78,69.81Z"/>
  <path class="cls-18" d="m1583.73,376.85c.56,20.68-18.16,44.28-31.14,58.37-28.38,30.84-66.01,51.32-102.41,71.16-32.87,17.89-71,44.08-108.83,48.69-7.18.86-4.59-5.3-10.87-2.57-41.2,64.03-92.79,96.83-165.31,117.85-31.49,9.14-80.08,31.01-113.26,19.8-12.54,5.22-62.73,4.26-66.11-15-2.42-13.82,15.46-23.9,30.05-27.13-16.8-5.95-15.21-47.87,17.82-32.51-.79-.67-1.52-1.36-2.23-2.07-43.97-43.3,37.36-130.35,77.03-65.01,1.69,2.75,3.28,5.76,4.78,9.04-4.84-18.49,24.12-19.47,34.83-8.28-15.09-22.35-10.89-69.39,28.19-56.39-3.03-15.78-4.76-50.65,15.26-47.67,1.42.21,2.96.63,4.63,1.25-18.95-45.5-14.86-95.92,13.71-139.41,16.24-24.71,40.47-37.04,69.68-40.09,31.95-3.34,53.72,2.53,66.66,27.36v.06c2.21,4.24,4.15,9.04,5.84,14.44-1.52-4.88.61-7.97,4.34-9.66,7.18-3.24,20.28-1.27,24.27,3.24,6.01,6.8,6.36,18.89,4.61,29.84-1.04,6.59-2.86,12.77-4.65,17.13,3.84-7.28,10.33-12.86,17.64-15.9,10.81-4.49,23.39-3.44,31.81,5.91,5.74,6.37,7.91,14.02,8.1,22.1v.02c.21,8.49-1.79,17.45-4.2,25.94,2.98-9.47,6.2-18.66,10.27-27.74,3.05-6.82,6.59-13.57,10.89-20.29,13.65-21.41,43.81-70,72.44-72.29,22.6-1.8,29.09,11.1,28.36,28.24-.96,22.79-14.63,53.09-20.04,66.34,20.41-16.93,47.14-11.73,47.85,15.24Z"/>
  <path class="cls-3" d="m611.02,594.81c-6.47,16.3-18.8,24.63-35.79,26.86-23.37,3.09-43.51-5.15-63.94-15.26-28.7-14.25-55.2-29.76-80.58-49.44-27.94-21.66-52.15-46.35-76.15-72.17-8.24-8.85-23.44-27.86-20.79-41.55-8.77-12.98-37.02-50.98-18.09-67.08,12.27-10.44,30.68-1.8,42.8,4.51,16.38,8.52,39.96,23.58,32.2,44.49,10.02-16.19,27.32-28.8,46.81-25.79,24.73,3.82,14.94,35.69,7.8,52.55,10.1-20.37,23.6-19.32,30.87,2.11,6.3,18.62,2.59,32.85-2.59,50.76,7.74-23.54,16.9-36.44,39.86-18.09-2.5-4.22-5.45-10.52-7.6-17.28v-.02c-5.05-15.88-5.64-34.23,14.44-33.91,6.64.12,13.94,4.63,18.59,10.62,3.09,3.97,5.01,8.62,4.74,13.02.86-1.88,2.13-3.48,3.69-4.78,4.92-4.22,12.61-5.74,18.7-5.24,15.67,1.29,24.15,20.35,28.28,33.56,4.45,14.27,3.24,29.07-5.38,40.88-.02.04-.06.06-.08.1-1.29,1.8-2.78,3.53-4.45,5.18,4.99-.56,8.51-.6,12.21.56,2.48.75,5.03,2.04,8.2,4.03,15.46,9.73,22.37,26.3,8.16,40.28-.38.38-.81.77-1.23,1.15,5.45,4.3,1.52,14.46-.67,19.95Z"/>
  <path class="cls-11" d="m1346.2,294.23v.06c.19,10.21-1.4,20.47-3.42,30.53-5.68,28.53-14.82,56.76-30.62,81.2-15.8,24.44-38.71,44.97-66.28,54.32-12.4,4.2-26.55,5.97-38.32.19-6.78-3.32-12.12-8.89-16.03-15.4,1.42.21,2.96.63,4.63,1.25-18.95-45.5-14.86-95.92,13.71-139.41,16.24-24.71,40.47-37.04,69.68-40.09,31.95-3.34,53.72,2.53,66.66,27.36Z"/>
  <path class="cls-4" d="m1438.17,361.39v.02c-2.65,10.14-8.76,19.26-15.88,27.05-9.43,10.33-20.85,18.85-33.45,24.94-3.92,1.9-9.1,3.38-12.19.31-2.27-2.25-2.19-5.89-1.86-9.08,1.25-12.35,9.37-51.11,23.46-71.25,10.81-4.49,23.39-3.44,31.81,5.91,5.74,6.37,7.91,14.02,8.1,22.1Z"/>
  <path class="cls-1" d="m1555.92,295.27c-.77,1.59-1.59,3.15-2.44,4.65-18.68,33.02-47.4,60.27-81.35,77.18-4.74,2.36-9.73,4.57-15.03,4.72-5.28.15-10.96-2.17-13.34-6.89-2.28-4.55-1.09-10,.35-14.88.04-.15.08-.29.13-.44,3.05-6.82,6.59-13.57,10.89-20.29,13.65-21.41,43.81-70,72.44-72.29,22.6-1.8,29.09,11.1,28.36,28.24Z"/>
  <path class="cls-16" d="m1385.26,332.15c-4.97,10.43-12.63,19.56-22.2,26.07-3,2.04-7.12,3.78-10,1.57-2-1.52-2.42-4.32-2.61-6.82-1.31-16.47-.58-37.77,5.93-53.91,7.18-3.24,20.28-1.27,24.27,3.24,6.01,6.8,6.36,18.89,4.61,29.84Z"/>
  <path class="cls-23" d="m1356.04,389.66c1.1,0,2.2.19,3.26.61,4.8,1.88,6.87,7.72,6.64,12.88-.29,6.48-3.27,12.6-7.27,17.7-7.04,8.97-17.61,16.15-28.81,18.68-2.15.49-4.57.77-6.43-.42-1.91-1.22-2.68-3.72-2.44-5.98.24-2.25,1.3-4.33,2.38-6.32,5.68-10.56,12.18-24.49,21.56-32.21,3.17-2.61,7.17-4.96,11.1-4.95Z"/>
  <path class="cls-15" d="m1108.47,548.42c-.5,10.58-4.17,21.12-10.02,30.03-8.68,13.17-21.77,23.02-36.02,29.8-7.16,3.4-14.86,6.12-22.79,6.2-2.75.02-5.53-.31-8.2-1.02-43.97-43.3,37.36-130.35,77.03-65.01Z"/>
  <path class="cls-8" d="m1475.46,167.03c-5.11,24.12-19.05,46.29-38.57,61.34-9.48,7.3-21.25,13.15-33.04,11.04-9.48-1.71-17.26-8.47-22.18-16.93v-.02c-2.09-15.03.96-30.66,8.04-45.33,9.75-20.18,27.96-48.77,53.4-47.08,12.98.86,29.63,7.93,33.54,21.43.06-.65.13-1.31.27-1.94.42,5.8-.27,11.79-1.46,17.49Z"/>
  <path class="cls-9" d="m1543.73,149.42c-4.49,10.68-12.6,19.83-22.77,25.4-5.68,3.15-12.88,5.13-18.55,1.92-4.59-2.59-6.89-7.89-8.43-12.94-2.46-7.99-5.93-22.02-5.32-33.31,8.79-7.8,20.91-12.73,31.07-11.39,20.29,2.69,25.73,15.3,24,30.32Z"/>
  <path class="cls-19" d="m1508.66,244.55c.1,5.29,1.12,11.24,5.47,14.27,5.22,3.64,12.4,1.23,18.03-1.75,9.76-5.17,18.75-11.79,26.58-19.59,7.39-7.35,14.13-17.42,11.53-27.51-2.18-8.45-10.6-14.15-19.2-15.61-12.94-2.19-26.46-.17-32.86,11.53-6.44,11.77-9.81,25.23-9.55,38.66Z"/>
  <path class="cls-14" d="m1445.33,287.32c1.03,4.41,3,9.2,7.43,10.91,5.33,2.06,11.35-1.32,15.86-4.88,7.84-6.18,14.73-13.44,20.38-21.45,5.32-7.56,9.59-17.27,5.47-25.22-3.45-6.66-12.02-9.84-19.99-9.43-11.99.62-23.77,4.88-27.43,15.89-3.69,11.08-4.33,22.99-1.72,34.18Z"/>
  <path class="cls-21" d="m1632.67,199.81c-1.13,2.92-2.57,5.88-5.03,7.85-4.88,3.94-12.5,2.63-17.3-1.44-4.78-4.05-7.3-10.14-9.18-16.13-3.57-11.46-5.41-23.46-5.45-35.46,0-2.5-.35-5.72-.54-9.12,14.59-16.8,30.72-11.46,40.2,15.71,2.88,12.77,2.05,26.4-2.71,38.59Z"/>
  <path class="cls-6" d="m1720.14,152.61c-7.47,6.66-18.7,7.07-28.47,4.9-16.78-3.69-32.01-14.07-41.55-28.36-7.53-11.25-11.48-24.81-11.39-38.32,0-.19,0-.36.02-.54-.02-.02,0-.02,0-.02,4.82-5.76,12.02-9.33,22.44-9.39,29.51-.17,52.86,20.56,65.89,46.08l.02.02c.25,1.11.44,2.25.58,3.38.96,8.08-1.46,16.84-7.55,22.25Z"/>
  <path class="cls-24" d="m482.66,287.57c-22.96,25.84-56.37,42.03-91.05,31.6-27.3-8.2-45.14-34.92-53.8-62.07-14.75-46.27-8.22-98.67,16.49-140.37,12.19-12.52,26.25-22.54,42.41-27.92,42.3-14.07,74.9,4.7,93.75,42.84,23.64,47.75,11.92,108.4-7.81,155.92Z"/>
  <path class="cls-10" d="m517.3,300.39s0,.02-.02.04c-6.89,5.22-14.75,9.2-23.08,11.6-3.4.98-7.74,1.38-9.79-1.48-1.84-2.55-.65-6.14.81-8.93,4.32-8.28,11.14-16.19,18.28-22.89,14.23-1.98,25.38,7.39,13.8,21.66Z"/>
  <path class="cls-17" d="m534.7,374.54c-15.67,9.54-33.83,15.15-51.94,17.03-6.28.67-13.59.36-17.53-4.57-3.88-4.84-2.65-11.92-.73-17.84,3.74-11.58,9.58-22.43,16.97-32.08,10.41-13.57,23.29-20.93,36.35-29.55h.02c15.69-3.3,35.98-2.98,44.56,8.01,14.61,18.68-11.29,46.35-27.71,59Z"/>
  <path class="cls-13" d="m609.67,384.22s.02.02,0,.04c0,0,.02.02,0,.04.06,4.57-.58,9.18-1.54,13.65-1.19,5.7-3.01,11.5-6.95,15.8-3.92,4.28-10.44,6.68-15.76,4.32-6.37-2.8-8.49-10.66-9.83-17.49-1.11-5.64-3.03-15.55-2.9-24.61-.02-.02,0-.04,0-.04-.02-.02,0-.04,0-.04,2.04-3.11,4.49-5.72,7.74-7.3,11.35-5.53,22.46,5.09,29.24,15.63Z"/>
  <path class="cls-22" d="m637.17,467.93c-2.92,4.38-6.76,7.8-11.79,7.6-4.55-.19-8.49-3.61-10.54-7.68-2.04-4.07-2.53-8.72-2.88-13.27-.69-9.16-1.67-51.69,6.37-77.03,8.52-8.45,21.04-11.25,28.76,1.08,12.44,19.8,3.8,58.89-9.93,89.3Z"/>
  <path class="cls-5" d="m319.5,166.32c-.21,1.19-.44,2.38-.67,3.57-2.46,12.17-7.12,44.95-24.13,45.81-6.45.33-11.42-5.49-14.73-11.04-18.84-31.47-18.72-73.29-.1-104.83h.02c17.28-4.51,34.37,23.9,36.81,37.11,2,10.83,1.73,24.27-1.08,36.86,1.25-2.5,2.55-4.99,3.88-7.49Z"/>
  <path class="cls-20" d="m227.06,140.39c-28.08,11.45-62.85,6.72-84.99-14.01-22.14-20.73-28.76-57.17-12.98-83.07,12.21-20.03,34.79-31.44,57.36-37.82,24.51-6.93,52.03-8.8,74.45,3.31,59.47,32.14,12.25,112.79-33.83,131.59Z"/>
  <path class="cls-2" d="m588.88,523.56s-.06.06-.08.1c-.4.44-.83.88-1.25,1.31-6.87,6.82-18.14,9.98-26.52,5.15-7.87-4.53-10.94-14.25-12.6-23.17-2.9-15.72-5.68-36.69-1.17-52.57,4.92-4.22,12.61-5.74,18.7-5.24,15.67,1.29,24.15,20.35,28.28,33.56,4.45,14.27,3.24,29.07-5.38,40.88Z"/>
  <path class="cls-25" d="m535.75,497.41c-.23.92-.65,2.02-1.61,2.11-.73.06-1.34-.52-1.84-1.04-6.07-6.51-12.13-13.04-18.22-19.55-2.86-3.07-5.74-6.16-8.26-9.5v-.02c-5.05-15.88-5.64-34.23,14.44-33.91,6.64.12,13.94,4.63,18.59,10.62,1.96,17.11.88,34.52-3.09,51.28Z"/>
  <path class="cls-26" d="m612.92,573.71c-1.9.31-3.88.35-5.82.31-6.57-.15-13.09-1.09-19.43-2.8-4.17-1.11-8.43-2.67-11.35-5.86-4.22-4.61-4.61-11.77-2.65-17.72,3.15-9.48,12.67-16.19,22.89-18.24,2.48.75,5.03,2.04,8.2,4.03,15.46,9.73,22.37,26.3,8.16,40.28Z"/>
</svg>